<svg xmlns="http://www.w3.org/2000/svg" xmlns:xlink="http://www.w3.org/1999/xlink" viewBox="0 0 427.55 104.32"><defs><style>.cls-1,.cls-2{fill:#fff;}.cls-2{font-size:13.85px;}.cls-3{fill:url(#New_Gradient_Swatch_2);}</style><linearGradient id="New_Gradient_Swatch_2" x1="85.98" y1="8.11" x2="42.93" y2="82.67" gradientUnits="userSpaceOnUse"><stop offset="0" stop-color="#17ccfc"/><stop offset="1" stop-color="#6c47ff"/></linearGradient></defs><title>Asset 2</title><g id="Layer_2" data-name="Layer 2"><g id="Layer_1-2" data-name="Layer 1"><path class="cls-1" d="M150.1,59.73a20.41,20.41,0,0,1-9.91-2.26A15.29,15.29,0,0,1,133.85,51a20.81,20.81,0,0,1-2.2-9.78,20.64,20.64,0,0,1,2.2-9.76,15.27,15.27,0,0,1,6.34-6.42,20.3,20.3,0,0,1,9.91-2.27A21.77,21.77,0,0,1,157,23.88a13.92,13.92,0,0,1,5.35,3l-2.49,6.26a16.36,16.36,0,0,0-4.56-2.62,14.21,14.21,0,0,0-4.87-.84q-5.1,0-7.72,3t-2.63,8.52q0,5.55,2.63,8.56t7.72,3a14.21,14.21,0,0,0,4.87-.84,16.36,16.36,0,0,0,4.56-2.62l2.49,6.27a14.68,14.68,0,0,1-5.35,3A21.24,21.24,0,0,1,150.1,59.73Z"/><path class="cls-1" d="M174.56,59.73a11.21,11.21,0,0,1-5-1,8.41,8.41,0,0,1-3.36-2.85A7.22,7.22,0,0,1,165,51.68a6.23,6.23,0,0,1,1.43-4.33A8.58,8.58,0,0,1,171,45.06a40,40,0,0,1,8.49-.72h2.7v4h-2.65a31,31,0,0,0-3.31.15A7.57,7.57,0,0,0,174,49a2.71,2.71,0,0,0-1.24,1,2.51,2.51,0,0,0-.39,1.41,3,3,0,0,0,1,2.29,4,4,0,0,0,2.82.92,5.19,5.19,0,0,0,2.65-.67,4.69,4.69,0,0,0,1.84-1.83,5.63,5.63,0,0,0,.66-2.8V43.48a4.19,4.19,0,0,0-1-3.19,5.14,5.14,0,0,0-3.51-.94,16.27,16.27,0,0,0-4.26.61,17.22,17.22,0,0,0-4.46,1.94L166,36.8a15.56,15.56,0,0,1,3.19-1.63,23.88,23.88,0,0,1,7.92-1.48,16.1,16.1,0,0,1,6.5,1.15,7.67,7.67,0,0,1,3.82,3.54,13.11,13.11,0,0,1,1.25,6.07V59.22H181.5v-5h.35a6.34,6.34,0,0,1-1.3,2.91,6.86,6.86,0,0,1-2.49,1.91A8.5,8.5,0,0,1,174.56,59.73Z"/><path class="cls-1" d="M194.59,59.22v-25h7.54v4.69h-.56a9.51,9.51,0,0,1,1.86-2.8,7.92,7.92,0,0,1,2.78-1.81,9.85,9.85,0,0,1,3.57-.64,8.14,8.14,0,0,1,4.84,1.38,7.46,7.46,0,0,1,2.75,4.18h-.71a9,9,0,0,1,3.46-4,9.54,9.54,0,0,1,5.3-1.51,9.24,9.24,0,0,1,4.74,1.12A6.72,6.72,0,0,1,233,38.3a16.44,16.44,0,0,1,.92,5.94v15h-7.69V44.5a6.87,6.87,0,0,0-.77-3.7,3.06,3.06,0,0,0-2.75-1.14,4.43,4.43,0,0,0-2.42.66,4.2,4.2,0,0,0-1.61,2,8.27,8.27,0,0,0-.56,3.21v13.7h-7.69V44.5a6.47,6.47,0,0,0-.82-3.7,3,3,0,0,0-2.65-1.14,4.54,4.54,0,0,0-2.47.66,4.18,4.18,0,0,0-1.6,2,8.09,8.09,0,0,0-.56,3.21v13.7Z"/><path class="cls-1" d="M239.79,68.4V34.25h7.55v4.9h-.51a7,7,0,0,1,3.08-4,9.72,9.72,0,0,1,5.32-1.48A10.55,10.55,0,0,1,261,35.27a10.29,10.29,0,0,1,3.85,4.49,16.29,16.29,0,0,1,1.35,6.93,16.52,16.52,0,0,1-1.37,7,10,10,0,0,1-9.59,6.06A9.74,9.74,0,0,1,250,58.31a6.92,6.92,0,0,1-3-3.72h.56V68.4ZM252.94,54a5,5,0,0,0,4-1.79c1-1.19,1.52-3,1.52-5.55s-.5-4.31-1.52-5.48a5.37,5.37,0,0,0-8,0q-1.53,1.76-1.53,5.48T249,52.24A5,5,0,0,0,252.94,54Z"/><path class="cls-1" d="M280.1,59.73a10.65,10.65,0,0,1-5.25-1.17,7,7,0,0,1-3.08-3.49,14.9,14.9,0,0,1-1-5.83v-15h7.69V49.39a6.65,6.65,0,0,0,.41,2.45,2.93,2.93,0,0,0,1.25,1.5,4.32,4.32,0,0,0,2.16.48,4.86,4.86,0,0,0,2.6-.69,4.6,4.6,0,0,0,1.76-2,6.7,6.7,0,0,0,.64-3V34.25H295v25h-7.54V54.33h.82a8.33,8.33,0,0,1-8.16,5.4Z"/><path class="cls-1" d="M310.47,59.73a26.46,26.46,0,0,1-4.23-.33,20.31,20.31,0,0,1-3.71-.94,11,11,0,0,1-3-1.58l1.83-4.94a26.64,26.64,0,0,0,2.78,1.32,15.77,15.77,0,0,0,3.14.92,17.62,17.62,0,0,0,3.21.31,5.57,5.57,0,0,0,3.16-.72,2.16,2.16,0,0,0,1-1.83,1.7,1.7,0,0,0-.66-1.46,5,5,0,0,0-1.93-.73l-5.41-1a9,9,0,0,1-4.81-2.35A6.1,6.1,0,0,1,300.18,42a7,7,0,0,1,1.43-4.43,9,9,0,0,1,3.95-2.83,15.37,15.37,0,0,1,5.73-1,21,21,0,0,1,3.57.31,16.53,16.53,0,0,1,3.28.92A11.32,11.32,0,0,1,321,36.5l-2,4.94a10.77,10.77,0,0,0-2.29-1.27,14.64,14.64,0,0,0-2.7-.87,12.12,12.12,0,0,0-2.55-.31,6.15,6.15,0,0,0-3.39.72,2.14,2.14,0,0,0-1,1.83,1.91,1.91,0,0,0,.61,1.45,3.38,3.38,0,0,0,1.83.79l5.41.92a9.66,9.66,0,0,1,5,2.27,5.85,5.85,0,0,1,1.73,4.46,7.36,7.36,0,0,1-1.37,4.51,8.53,8.53,0,0,1-3.88,2.83A16.25,16.25,0,0,1,310.47,59.73Z"/><path class="cls-1" d="M327.7,59.22V23.3h3.11V56.42h18.75v2.8Z"/><path class="cls-1" d="M353.84,28V24.06H358V28Zm.51,31.23V34.51h3.11V59.22Z"/><path class="cls-1" d="M365.66,59.22V34.51h3.06v5.76h-.56a8.45,8.45,0,0,1,3.49-4.64,10.35,10.35,0,0,1,5.68-1.58,10.48,10.48,0,0,1,4.92,1,6.56,6.56,0,0,1,2.93,3.19,13.09,13.09,0,0,1,1,5.35V59.22H383V43.89a10.73,10.73,0,0,0-.64-4,4.44,4.44,0,0,0-2-2.34,7.2,7.2,0,0,0-3.52-.77,8.68,8.68,0,0,0-4.28,1,7.06,7.06,0,0,0-2.83,2.9,9.44,9.44,0,0,0-1,4.44V59.22Z"/><path class="cls-1" d="M394.2,59.22V23.3h3.11V45.72h.1l12.18-11.21h4.13L399.6,47.45v-2l15.34,13.75h-4.13l-13.4-11.87h-.1V59.22Z"/><text class="cls-2" transform="translate(134.11 87.9)">&quot;Empowering Educators, Engaging Students&quot;</text><path class="cls-3" d="M94.32,86.39a6,6,0,0,1-2.21-.46L79,81.27l-.1,0a2.34,2.34,0,0,0-.91-.18,2.39,2.39,0,0,0-.83.15c-.32.12-3.2,1.2-6.21,2A51.82,51.82,0,0,1,59,85.15,43.08,43.08,0,0,1,28.31,72.52,42.42,42.42,0,0,1,15.79,42.34a40.93,40.93,0,0,1,.94-8.69,42.23,42.23,0,0,1,15.16-24A45,45,0,0,1,59.73,0,44.42,44.42,0,0,1,91.41,13,41.26,41.26,0,0,1,96.6,65.26l0,.06-.17.23-.11.16,0,.06c-.09.16-.17.32-.25.49l3.64,12.93a6.11,6.11,0,0,1,.26,1.65,5.55,5.55,0,0,1-5.54,5.55Z"/><path class="cls-1" d="M61.94,91.7a3.64,3.64,0,0,0-2.38-1.88,22.79,22.79,0,0,0-4.08-.38A46.67,46.67,0,0,1,25.69,75.86,46.07,46.07,0,0,1,12.58,49.79,26.83,26.83,0,0,1,12.26,47a3.71,3.71,0,0,0-6.48-2.45h0a17.06,17.06,0,0,0-2.68,4A37.47,37.47,0,0,0,5.64,83.2a3.14,3.14,0,0,1,.47,2.51c-.63,3.26-1.74,9-2.31,12A5.55,5.55,0,0,0,5.65,103l.1.09a5.64,5.64,0,0,0,3.5,1.22,5.51,5.51,0,0,0,2.08-.41L23.7,99.14a1.8,1.8,0,0,1,1.33,0,42.78,42.78,0,0,0,14.75,2.77A40.68,40.68,0,0,0,57.1,98.06c1.26-.59,3.24-1.24,4.39-2.57A3.46,3.46,0,0,0,61.94,91.7Z"/><path class="cls-1" d="M75.93,41.39l-7.22,7.22a10.2,10.2,0,0,1-14.42,0,10.39,10.39,0,0,1-1.55-2.06l3.35-3.35a2.53,2.53,0,0,1,.55-.37A4.89,4.89,0,0,0,57.9,45a5.1,5.1,0,0,0,7.21,0l7.21-7.21a5.1,5.1,0,1,0-7.21-7.22l-2.57,2.57a12.78,12.78,0,0,0-6.5-.71L61.5,27A10.2,10.2,0,0,1,75.93,41.39ZM56.86,53.25l-2.57,2.57a5.1,5.1,0,0,1-7.21-7.21l7.21-7.22a5.1,5.1,0,0,1,7.21,0,5,5,0,0,1,1.26,2.16,2.18,2.18,0,0,0,.54-.35l3.36-3.35a10.08,10.08,0,0,0-16-2.06L43.47,45A10.2,10.2,0,0,0,57.9,59.42L63.36,54A12.78,12.78,0,0,1,56.86,53.25Z"/></g></g></svg>